<svg xmlns="http://www.w3.org/2000/svg" version="1.1" width="1188.2" height="379.1"><defs id="defs4"><style id="style2">.cls-1{fill:#ef3340}.cls-2{fill:#c8102e}.cls-3{fill:#222}</style></defs><path class="cls-1" id="rect6" d="M108 234.8h36.2V271H108z"/><path class="cls-2" id="rect8" d="M150.3 108h78.5v36.2h-78.5z"/><path class="cls-2" id="rect10" d="M108 192.5h78.5v36.2H108z"/><path class="cls-1" id="rect12" d="M108 108h36.2v78.5H108z"/><path class="cls-1" id="rect14" d="M192.5 150.3h36.2v120.8h-36.2z"/><path class="cls-3" d="M340.2 240.3 329.6 271h-22.3L349 150.2h28.2L420.7 271h-23.9l-11-30.7zm40.4-18.8c-9.4-27.6-15.2-44-18.1-54.3h-.3c-3 11.3-9.2 30.7-16.9 54.3z" id="path16"/><path class="cls-3" d="M448.7 271V150.3h28.6c15.9 27.6 47.1 80.3 53 93.4h.2c-1.2-13.6-1.2-33.9-1.2-53.6v-39.8h20.8v120.8h-26.9c-14.1-24.4-47.8-83.6-54.5-97.4h-.2c.9 11.7 1 34.9 1 56.7v40.7h-20.8z" id="path18"/><path class="cls-3" d="M592.2 150.3h46.2c34.7 0 57.8 23.2 57.8 59 0 35.4-22.3 61.8-58.6 61.8h-45.4zm22.7 102.2h21.6c25 0 36.3-18.3 36.3-43.1 0-21.1-10.7-40.7-36.3-40.7h-21.6z" id="path20"/><path class="cls-3" d="M732.5 150.3H781c25 0 41.9 14 41.9 36.7 0 25.3-18.8 37.5-42.6 37.5h-25.1v46.6h-22.7zm22.7 55.8h22.7c13.6 0 22.2-5.8 22.2-18.7 0-13.3-9.4-18.8-21.5-18.8h-23.4z" id="path22"/><path class="cls-3" d="M867.9 240.3 857.2 271h-22.3l41.7-120.8h28.3L948.4 271h-23.9l-11-30.7zm40.3-18.8c-9.4-27.6-15.2-44-18.2-54.3h-.2c-3 11.3-9.2 30.7-16.9 54.3z" id="path24"/><path class="cls-3" d="M976.2 150.3h46.2c34.7 0 57.8 23.2 57.8 59 0 35.4-22.3 61.8-58.6 61.8h-45.4zm22.7 102.2h21.6c25 0 36.3-18.3 36.3-43.1 0-21.1-10.7-40.7-36.3-40.7h-21.6z" id="path26"/></svg>
