<svg xmlns="http://www.w3.org/2000/svg" xml:space="preserve" width="1706.667" height="960"><defs><clipPath clipPathUnits="userSpaceOnUse" id="a"><path d="M182.717 139.243h914.565v441.513H182.717Z"/></clipPath></defs><g clip-path="url(#a)" transform="matrix(1.33333 0 0 -1.33333 0 960)"><path d="M0 0c3.919 5.527 5.879 12.854 5.879 21.983 0 9.124-1.96 16.455-5.879 21.984-3.924 5.525-9.418 8.289-16.488 8.289-8.098 0-14.143-2.697-18.124-8.097-3.986-5.401-5.979-12.793-5.979-22.176 0-9.385 1.993-16.778 5.979-22.175 3.981-5.4 10.026-8.099 18.124-8.099C-9.418-8.291-3.924-5.528 0 0m10.509 65.176c6.556-4.501 11.504-10.542 14.846-18.126 3.343-7.584 5.014-15.943 5.014-25.067 0-9.129-1.671-17.484-5.014-25.067-3.342-7.587-8.29-13.63-14.846-18.126-6.556-4.503-14.4-6.749-23.525-6.749-10.158 0-19.35 2.763-27.575 8.29l-.385-6.363h-22.369V118.59h23.912V63.25c7.838 5.783 16.645 8.675 26.417 8.675 9.125 0 16.969-2.251 23.525-6.749" style="fill:#333;fill-opacity:1;fill-rule:nonzero;stroke:none" transform="translate(546.344 313.795)"/><path d="M598.385 359.313h23.91v-71.551h-23.91zm0 47.823h23.91v-23.912h-23.91z" style="fill:#333;fill-opacity:1;fill-rule:nonzero;stroke:none"/><path d="M0 0h23.909v-87.737l32.522 39.529h26.997l-37.727-46.28 35.866-50.134H54.57l-30.661 42.808v-42.808L0-144.623Z" style="fill:#333;fill-opacity:1;fill-rule:nonzero;stroke:none" transform="translate(717.19 432.385)"/><path d="M0 0c0 5.014-1.418 9.449-4.244 13.306-2.826 3.857-7.202 5.784-13.113 5.784-5.914 0-10.673-1.734-14.27-5.206-3.597-3.471-6.043-8.1-7.33-13.884zm-40.786-54.278c-7.905 4.559-13.82 10.667-17.74 18.315-3.921 7.649-5.881 16.167-5.881 25.551 0 8.997 1.862 17.225 5.593 24.681 3.725 7.456 9.126 13.403 16.196 17.836 7.07 4.437 15.487 6.654 25.261 6.654 8.997 0 16.612-1.865 22.85-5.591 6.233-3.731 10.929-8.746 14.079-15.042 3.145-6.299 4.722-13.371 4.722-21.209 0-3.858-.514-8.23-1.541-13.113h-62.285c1.287-8.486 4.627-14.82 10.027-18.996 5.401-4.177 11.885-6.265 19.475-6.265 10.416 0 20.054 2.632 28.924 7.905L20.055-53.8c-4.118-2.185-8.908-3.951-14.372-5.3-5.462-1.351-11.408-2.025-17.832-2.025-11.185 0-20.732 2.279-28.637 6.847" style="fill:#333;fill-opacity:1;fill-rule:nonzero;stroke:none" transform="translate(869.806 346.96)"/><path d="m0 0-39.394 88.448h26.14l24.24-60.986 24.623 60.986h26.134L2.462-52.085h-23.483z" style="fill:#333;fill-opacity:1;fill-rule:nonzero;stroke:none" transform="translate(939.903 295.73)"/><path d="M0 0v23.912h-23.912V-95.462H0v71.551h23.908V0Z" style="fill:#333;fill-opacity:1;fill-rule:nonzero;stroke:none" transform="translate(670.117 383.225)"/><path d="m0 0 29.863 17.241L0 34.482Zm-47.713-27.546 35.445 20.464v48.648L-47.713 62.03Zm95.959-.009 29.606 17.092L48.246 6.63Zm-60.514-27.536v33.844l-29.31-16.923ZM0-55.41l35.978 20.773V6.608L0-14.164Zm35.978-27.536v34.143L6.409-65.875Zm-83.691-.011 29.588 17.082-29.588 17.082zm35.445-27.545v33.845l-29.31-16.923zm48.246-27.853v41.243L0-76.34v-41.244zm12.268-.022 29.606 17.092-29.606 17.092zM0-166.23l29.863 17.24L0-131.749Zm-47.713-27.547 35.445 20.462v48.647l-35.445 20.463zM-59.981 83.277l162.367-93.74-54.14-31.258v-48.307l54.14-31.257-162.367-93.741z" style="fill:#333;fill-opacity:1;fill-rule:nonzero;stroke:none" transform="translate(338.34 425.755)"/></g></svg>