<svg xmlns="http://www.w3.org/2000/svg" xml:space="preserve" width="1145.196" height="816.384" style="background-color:#fff"><defs><clipPath clipPathUnits="userSpaceOnUse" id="a"><path d="M0 612.288h858.897V0H0Z"/></clipPath></defs><g clip-path="url(#a)" transform="matrix(1.33333 0 0 -1.33333 0 816.384)"><path d="M0 0c.651 0 1.313-.026 1.965-.094C6.021-.492 10.1-2.338 12.84-5.401c11.288-12.586-15.712-28.658-26.404-20.66-4.936 3.695-5.905 11.392-3.409 16.637C-14.031-3.237-6.64 0 0 0" style="fill:#000;fill-opacity:1;fill-rule:nonzero;stroke:none" transform="translate(209.417 346.022)"/><path d="M0 0c9.708-3.402 14.325-18.292 3.832-23.657-7.908-4.044-19.445 1.708-18.696 11.292.217 2.773 1.527 5.351 3.332 7.412 1.777 2.025 3.995 4.178 6.689 4.84C-3.503.217-1.333.446 0 0" style="fill:#000;fill-opacity:1;fill-rule:nonzero;stroke:none" transform="translate(216.727 294.298)"/><path d="M0 0c3.352-1.57 6.381-3.86 9.545-6.74C19.078-15.429 22.711-27.495 19-39.964 14.011-56.717-5.39-61.822-20.49-65.768c-4.528-.673-8.812-1.052-10.285-1.593 2.425-13.043 23.103-12.41 32.229-9.147 4.307 1.545 8.579 3.211 12.723 5.156 1.915.896 9.241 6.313 10.975 4.221 3.114-3.727 2.974-12.367.789-16.626-1.147-2.234-4.218-4.373-6.298-5.4-15.516-7.648-37.376-10.489-52.072.472-4.351 3.246-9.09 7.7-12.144 12.213-2.411 3.571-4.475 7.777-5.782 11.889-4.088 12.811-4.975 28.647 1.223 40.94 4.295 8.497 12.085 16.839 20.521 21.367 4.795 2.581 12.796 4.905 18.289 4.702C-6.381 2.274-3.055 1.435 0 0m-17.326-20.54c-2.793-1.188-5.454-3.026-7.414-4.692-8.461-7.241-10.959-13.856-10.098-25.054.082-1.107 6.984 1.606 9.239 2.484C-17.382-44.581.621-37.027-4.75-24.397c-2.557 6.024-7.753 5.909-12.576 3.857" style="fill:#000;fill-opacity:1;fill-rule:nonzero;stroke:none" transform="translate(422.39 338.136)"/><path d="m0 0-.109-1.018C-1.114-10.9-1.743-20.831-3.136-30.671c-.713-4.994-1.209-10.008-2.02-14.983-.618-3.749-1.126-7.665-3.151-10.96-6.318-10.286-15.296-5.252-21.426 3.294 0 0-20.241 29.498-29.28 46.205-12.021 22.213-19.314 35.676-24.229 45.585-.099-1.424-.003-1.385.188-4.235 1.044-15.496 2.198-35.789 3.026-51.297.449-8.425.907-16.861 1.395-25.288.43-7.395 1.589-15.426-1.785-22.352-2.974-6.067-8.552-4.744-12.7-.936-2.482 2.276-5.809 5.61-7.206 10.245-1.309 4.346-1.404 7.704-2.041 12.155-4.698 32.73-5.549 66.93-5.268 99.954.084 10.589-.048 53.284 8.835 51.471 3.128-.639 8.364-1.684 10.533-3.955 3.322-3.471 5.235-8.508 6.917-12.879 5.806-15.082 12.007-29.584 19.518-45.869 5.622-12.192 11.86-23.905 18.209-35.711 3.916-7.282 8.085-14.423 12.343-21.507a81.505 81.505 0 0 1 3.677-5.557c.635-.88 1.118-.987 1.092-1.231.936 8.269.582 16.765.818 25.038.558 19.62 1.058 39.26 3.598 58.745 1.785 13.698 3.184 27.851 7.762 40.959 1.664 4.762 3.428 10.703 8.097 13.368 2.893 1.653 6.936 2.324 10.237 2.329 2.875 0 5.867-.834 8.42-2.117 4.617-2.324 3.741-7.699 3.017-11.74-.522-2.868-1.276-8.002-1.828-11.477-.972-6.131-1.599-9.35-2.616-15.476-1.192-7.236-2.378-14.465-3.413-21.727-1.427-9.995-2.695-20.019-3.984-30.037C2.345 19.575 1.017 9.8 0 0" style="fill:#000;fill-opacity:1;fill-rule:nonzero;stroke:none" transform="translate(562.424 283.169)"/><path d="M0 0c.586-.695 1.292-2.167 2.147-4.19 7.298-17.253 23.75-76.15 23.915-76.674 0 0 8.374.768 10.516.698 6.131.473 10.645.514 9.822-7.178-.724-6.703-1.355-10.589-5.296-11.318-5.932-.827-10.309-1.237-11.679-1.286.135-.396 10.042-46.493 10.6-50.982.41-3.3.92-6.457.612-9.713-.289-3.028-1.324-5.07-3.433-7.551-2.187-2.581-3.501-5.076-7.029-3.299-2.282 1.153-5.06 2.138-6.951 3.893-1.937 1.79-2.614 4.423-3.708 6.753-1.62 3.463-9.882 44.982-10.881 51.093-.449 2.731-1.659 7.451-1.659 7.451-4.888 0-9.747-.595-14.609-1.009-3.779-.317-11.111-.782-12.944-1.569-1.86-1.125-2.625-9.374-2.976-11.324-3.225-17.65-3.658-35.623-4.468-53.502-.102-2.232.428-5.817-2.458-6.328-3.099-.556-8.733 4.153-10.978 6.008-2.356 1.945-5.311 6.369-6.238 10.602-3.412 15.611.731 30.836 3.908 46.108 5.492 26.406 12.621 52.452 20.704 78.176 2.684 8.545 5.476 17.063 8.62 25.453 1.053 2.807 1.942 5.65 3.423 8.276C-9.859.683-8.188 2.922-5.5 2.622c1.008-.112 1.975-.469 2.876-.923C-1.738 1.25-.648.77 0 0m-6.505-86.312c3.018.397 10.457 1.045 10.457 1.045C3.16-77.207 1.74-72.336.404-64.34c-.757 4.468-2.108 12.281-4.36 16.273-1.507 2.665-4.171-4.586-4.508-5.456-2.142-5.602-3.767-11.214-5.149-17.028-.457-1.932-2.365-7.661-3.821-17.448 0 0 4.599.81 10.929 1.687" style="fill:#000;fill-opacity:1;fill-rule:nonzero;stroke:none" transform="translate(623.019 390.69)"/><path d="M0 0c-4.426-2.523-9.076-4.666-13.789-6.51-2.737-1.07-15.445-6.4-14.674.967 1.146 10.917 2.414 25.028 2.625 36.008.342 17.386-.233 34.838-2.018 52.144-.486 4.671-1.249 9.938-1.904 14.586-1.171 6.916-2.654 14.54-3.868 20.558-1.409 6.989 8.669 4.819 12.516 3.932 7.802-1.803 16.138-5.558 22.86-9.864 13.807-8.846 25.737-22.092 28.856-38.4 4.565-23.872-.735-50.399-19.992-66.185C7.301 4.521 3.73 2.126 0 0m40.275 110.763c-7.265 9.016-16.827 16.098-26.579 22.208-21.222 13.294-37.906 18.764-68.71 17.045-5.774-.323-13.182-1.799-17.269-3.11-2.289-.736-3.139-2.652-3.462-4.197-.359-1.713-.457-3.518-.499-5.258-.121-5.865-.281-13.781 6.318-16.195 2.603-.957 6.519 1.77 7.687-2.309.244-.835.426-1.685.637-2.535 1.754-7.007 3.439-14.033 4.727-21.139 1.283-7.117 2.164-14.294 2.74-21.502.615-7.754.906-15.533 1.047-23.31.154-8.939.079-17.879-.154-26.823-.126-4.91-.303-9.824-.497-14.736-.241-5.844-.216-11.77-1.21-17.548-.09-.481-.188-2.902-.525-3.045-10.027-4.241-25.08 6.779-26.251-10.943-.103-1.557 1.637-15.195 4.731-19.032 2.718-3.369 8.025-4.197 14.23-4.42 3.899-.144 7.815-.314 11.725-.319 6.611 0 13.141.596 19.578 2.161 6.314 1.539 12.447 3.796 18.404 6.384 5.37 2.327 10.589 4.985 15.586 8.023 5.047 3.069 9.941 6.482 14.645 10.058C29.7-10.248 41.6 1.356 48.834 15.511c4.25 8.315 6.628 19.448 7.956 28.645 3.329 22.984-1.746 48.288-16.515 66.607" style="fill:#000;fill-opacity:1;fill-rule:nonzero;stroke:none" transform="translate(303.597 253.096)"/></g></svg>
