<svg xmlns="http://www.w3.org/2000/svg" xml:space="preserve" width="2560" height="800"><defs><clipPath clipPathUnits="userSpaceOnUse" id="a"><path d="M0 600h1920V0H0Z"/></clipPath></defs><path d="M0 0h1920v600H0Z" style="fill:#fff;fill-opacity:1;fill-rule:nonzero;stroke:none" transform="matrix(1.33333 0 0 -1.33333 0 800)"/><g clip-path="url(#a)" transform="matrix(1.33333 0 0 -1.33333 0 800)"><path d="M0 0c0-13.628-4.189-38.43-32.125-38.43S-64.77-13.803-64.77-.265V120.84h-39.741c-4.523 0-8.202-3.757-8.202-8.375V-6.39c0-22.977 8.738-74.832 79.567-74.832s81.089 59.5 81.089 74.312v127.75H0Z" style="fill:#2a5caa;fill-opacity:1;fill-rule:nonzero;stroke:none" transform="translate(928.724 280.28)"/><path d="M0 0v-9.938c0-4.554 3.727-8.281 8.281-8.281H129.187v41.406H56.313c-4.555 0-8.282 3.727-8.282 8.281v33.927l64.595.027c4.546 0 8.265 3.711 8.28 8.253v33.212h-65.54c-4.112.475-7.333 3.988-7.333 8.222v13.25h-.002v12.422h81.156v41.406H0Z" style="fill:#2a5caa;fill-opacity:1;fill-rule:nonzero;stroke:none" transform="translate(1362.57 218.934)"/><path d="M0 0h-48.031V-192.124c0-4.555 3.726-8.281 8.281-8.281H72.874V-159H0Z" style="fill:#2a5caa;fill-opacity:1;fill-rule:nonzero;stroke:none" transform="translate(1072.73 401.12)"/><path d="M0 0c-4.555 0-8.281-3.727-8.281-8.281v-192.124H39.75v64.593c0 4.555 3.727 8.281 8.281 8.281h56.312c4.555 0 8.282 3.727 8.282 8.281v33.012H39.75v36.551c0 4.553 3.725 8.279 8.277 8.281h72.879V0Z" style="fill:#2a5caa;fill-opacity:1;fill-rule:nonzero;stroke:none" transform="translate(645.418 401.12)"/><path d="M0 0h-48.031V-192.124c0-4.555 3.726-8.281 8.281-8.281H72.875V-159H0Z" style="fill:#2a5caa;fill-opacity:1;fill-rule:nonzero;stroke:none" transform="translate(1241.665 401.12)"/><path d="M0 0h-19.872v44.719H0c12.349 0 22.359-10.011 22.359-22.36C22.359 10.011 12.349 0 0 0m41.967-31.247C59.562-19.896 71.221-.136 71.221 22.359c0 35.217-28.548 63.766-63.765 63.766h-75.359V-30.64l-.002-75.36c0-4.554 3.726-8.281 8.281-8.281h9.937c.343 0 .678.028 1.01.069v-.069h28.805v72.875H-3.6l45.196-72.875h56.638z" style="fill:#2a5caa;fill-opacity:1;fill-rule:nonzero;stroke:none" transform="translate(1607.693 314.996)"/><path d="M0 0c5.111 2.951 12.956 2.219 17.432-1.628l31.723-27.257c4.476-3.846 11.286-3.33 15.132 1.146L88.415.341c3.847 4.477 3.331 11.286-1.145 15.133L47.604 49.557c-4.477 3.846-9.034 11.738-10.127 17.538l-9.684 51.394c-1.093 5.8-6.732 9.651-12.532 8.558l-36.381-6.855c-5.8-1.092-9.651-6.732-8.558-12.532l7.744-41.1c1.093-5.801-2.195-12.96-7.307-15.912l-39.846-23.005c-5.111-2.951-13.475-2.951-18.586 0l-39.847 23.005c-5.111 2.952-8.399 10.111-7.306 15.912l7.744 41.1c1.093 5.8-2.758 11.44-8.558 12.532l-36.381 6.855c-5.8 1.093-11.439-2.758-12.533-8.558l-9.683-51.394c-1.093-5.8-5.65-13.692-10.126-17.538l-39.667-34.083c-4.476-3.847-4.991-10.656-1.145-15.133l24.128-28.08c3.846-4.476 10.656-4.992 15.132-1.146l31.723 27.257c4.476 3.847 12.32 4.579 17.432 1.628l39.845-23.004c5.111-2.952 9.293-10.195 9.293-16.097V-85.11c0-5.902-4.557-12.329-10.126-14.283l-39.466-13.844c-5.57-1.953-8.528-8.108-6.574-13.678l12.255-34.935c1.953-5.569 8.109-8.527 13.678-6.573l49.349 17.31c5.569 1.954 14.683 1.954 20.252 0l49.349-17.31c5.57-1.954 11.724 1.004 13.678 6.573l12.255 34.935c1.953 5.57-1.005 11.725-6.574 13.678l-39.466 13.844c-5.57 1.954-10.126 8.381-10.126 14.283v46.009c0 5.902 4.181 13.145 9.293 16.097z" style="fill:#2a5caa;fill-opacity:1;fill-rule:nonzero;stroke:none" transform="translate(417.375 320.897)"/></g></svg>