<svg xmlns="http://www.w3.org/2000/svg" width="452.198" height="340.03" viewBox="0 0 119.644 89.966"><path d="M0 0h-.072l-6.232-17.421h-1.858L-14.181 0h-.07l-2.444-17.056h-5.395l4.629 28.213h3.792L-6.89-6.962l6.489 18.119h3.865l4.118-28.213H2.187Z" style="fill:#000;fill-opacity:1;fill-rule:nonzero;stroke:none" transform="matrix(.35278 0 0 -.35278 22.345 66.027)"/><path d="M0 0c0-2.405 1.603-4.995 4.229-4.995 2.623 0 4.229 2.59 4.229 4.995 0 2.479-1.606 5.03-4.229 5.03C1.603 5.03 0 2.479 0 0m13.631 0c0-5.541-3.788-9.514-9.402-9.514-5.614 0-9.403 3.973-9.403 9.514 0 5.576 3.826 9.551 9.403 9.551 5.576 0 9.402-3.975 9.402-9.551" style="fill:#000;fill-opacity:1;fill-rule:nonzero;stroke:none" transform="matrix(.35278 0 0 -.35278 27.513 68.895)"/><path d="M0 0h.074C1.13 1.604 2.917 2.224 4.739 2.224c4.811 0 6.196-3.391 6.196-7.544v-10.935H5.833v9.474c0 2.151.108 4.922-2.771 4.922C.038-1.859 0-5.248 0-7.4v-8.855h-5.102V1.642H0Z" style="fill:#000;fill-opacity:1;fill-rule:nonzero;stroke:none" transform="matrix(.35278 0 0 -.35278 35.291 66.31)"/><path d="M0 0c-.255 1.825-1.422 3.607-3.391 3.607-2.04 0-3.172-1.75-3.424-3.607zm-6.96-3.172c0-2.258.871-4.811 3.533-4.811C-1.75-7.983-.692-6.962 0-5.542l4.703-.765c-1.238-3.572-4.374-5.577-8.13-5.577-5.539 0-8.928 3.937-8.928 9.369 0 5.43 2.879 9.696 8.675 9.696 5.867 0 8.491-4.336 8.491-9.734v-.619z" style="fill:#000;fill-opacity:1;fill-rule:nonzero;stroke:none" transform="matrix(.35278 0 0 -.35278 44.665 68.059)"/><path d="M0 0h5.795l4.267-10.174L14.653 0h5.69L7.326-27.449H1.714L7.619-15.17z" style="fill:#000;fill-opacity:1;fill-rule:nonzero;stroke:none" transform="matrix(.35278 0 0 -.35278 46.644 65.73)"/><path d="M0 0v-6.05h7.763v-4.668H0v-12.098h-5.36V4.666H8.271V0Z" style="fill:#e2750f;fill-opacity:1;fill-rule:nonzero;stroke:none" transform="matrix(.35278 0 0 -.35278 59.477 63.995)"/><path d="M0 0c0-2.405 1.605-4.995 4.229-4.995 2.626 0 4.23 2.59 4.23 4.995 0 2.479-1.604 5.03-4.23 5.03C1.605 5.03 0 2.479 0 0m13.636 0c0-5.541-3.792-9.514-9.407-9.514S-5.176-5.541-5.176 0c0 5.576 3.828 9.551 9.405 9.551S13.636 5.576 13.636 0" style="fill:#e2750f;fill-opacity:1;fill-rule:nonzero;stroke:none" transform="matrix(.35278 0 0 -.35278 64.567 68.895)"/><path d="M0 0h.073c1.021 1.565 2.55 2.442 4.446 2.442.73 0 1.459-.182 2.117-.437l-.62-4.739a3.635 3.635 0 0 1-2.116.656C.363-2.078 0-5.214 0-7.984v-8.052h-5.104V1.86H0Z" style="fill:#e2750f;fill-opacity:1;fill-rule:nonzero;stroke:none" transform="matrix(.35278 0 0 -.35278 72.347 66.387)"/><path d="m0 0-7.051-14.896h-2.585l-3.832 10.897-4.262-10.897h-2.627l-8.235 18.262h5.576l3.952-9.453 4.14 10.035h2.833l4.049-9.856 3.499 7.637s4.435 11.075 14.721 11.113l1-4.296S3.99 9.051 0 0" style="fill:#e2750f;fill-opacity:1;fill-rule:nonzero;stroke:none" transform="matrix(.35278 0 0 -.35278 85.31 66.918)"/><path d="M0 0c0 2.41-1.64 4.996-4.264 4.996-2.627 0-4.229-2.586-4.229-4.996 0-2.401 1.602-5.029 4.229-5.029C-1.64-5.029 0-2.401 0 0m4.52-8.962H-.51v1.638h-.072c-1.094-1.423-2.994-2.224-4.85-2.224-5.251 0-8.238 4.779-8.238 9.622 0 4.741 3.025 9.443 8.164 9.443 1.86 0 3.756-.801 4.996-2.262v1.68h5.03z" style="fill:#e2750f;fill-opacity:1;fill-rule:nonzero;stroke:none" transform="matrix(.35278 0 0 -.35278 90.859 68.883)"/><path d="M0 0h.072c1.024 1.565 2.552 2.442 4.447 2.442.729 0 1.458-.182 2.114-.437l-.62-4.739a3.612 3.612 0 0 1-2.113.656C.366-2.078 0-5.214 0-7.984v-8.052h-5.104V1.86H0Z" style="fill:#e2750f;fill-opacity:1;fill-rule:nonzero;stroke:none" transform="matrix(.35278 0 0 -.35278 95.873 66.387)"/><path d="M0 0c0 2.41-1.604 4.996-4.229 4.996-2.623 0-4.23-2.586-4.23-4.996 0-2.401 1.607-5.029 4.23-5.029C-1.604-5.029 0-2.401 0 0m-.512-7.287h-.072c-1.059-1.46-2.951-2.261-4.81-2.261-5.25 0-8.239 4.779-8.239 9.622 0 4.741 3.026 9.443 8.165 9.443 1.859 0 3.756-.801 4.884-2.224h.072v11.228h5.105V-8.962H-.512z" style="fill:#e2750f;fill-opacity:1;fill-rule:nonzero;stroke:none" transform="matrix(.35278 0 0 -.35278 103.472 68.883)"/><path d="M0 0a9.03 9.03 0 0 0-7.43-4.307c-3.064-.108-5.925 1.358-7.674 3.85l-10.049 14.356-7.769-22.703a9.028 9.028 0 0 0-7.03-5.98 9.024 9.024 0 0 0-8.615 3.316l-6.832 8.676-4.972-15.952a9.047 9.047 0 0 0-8.624-6.353c-.891 0-1.794.136-2.687.414-4.764 1.484-7.423 6.548-5.94 11.309l10.071 32.349a9.047 9.047 0 0 0 6.988 6.201 9.039 9.039 0 0 0 8.738-3.299l7.183-9.124 8.151 23.812a9.04 9.04 0 0 0 7.284 6.02 9.048 9.048 0 0 0 8.666-3.769L-8.199 21.19 8.436 48.312C-2.387 61.369-18.721 69.689-37.001 69.689c-32.572 0-58.978-26.405-58.978-58.975 0-32.575 26.406-58.981 58.978-58.981 32.575 0 58.974 26.406 58.974 58.981 0 6.886-1.191 13.49-3.356 19.633z" style="fill:#e2750f;fill-opacity:1;fill-rule:nonzero;stroke:none" transform="matrix(.35278 0 0 -.35278 70.673 39.534)"/><path d="M0 0c0-6.47-5.247-11.72-11.717-11.72-6.477 0-11.724 5.25-11.724 11.72 0 6.475 5.247 11.722 11.724 11.722C-5.247 11.722 0 6.475 0 0" style="fill:#e2750f;fill-opacity:1;fill-rule:nonzero;stroke:none" transform="matrix(.35278 0 0 -.35278 83.83 18.687)"/></svg>