<svg xmlns="http://www.w3.org/2000/svg" version="1.1" id="レイヤー_1" x="0" y="0" xml:space="preserve" width="1318.5" height="676.05" style="background-color:#fff"><style type="text/css" id="style2">.st1{fill:#00a9e0}</style><g id="g19" transform="translate(160.4 165.8)"><g id="レイヤー_1-2_1_"><path class="st1" d="M528.1 76.2c-55.8 0-101.1 45.2-101.1 101.1V362h50.2v-97.4c48.2 28 110 11.7 138.1-36.6 28-48.2 11.7-110-36.6-138.1-15.3-8.9-32.8-13.6-50.6-13.7Zm0 152c-28.1 0-50.8-22.8-50.8-50.9 0-28.1 22.8-50.8 50.9-50.8 28.1 0 50.8 22.8 50.8 50.9 0 28-22.8 50.8-50.9 50.8z" id="path4"/><path class="st1" d="M310.2 76.2c-55.8-.1-101.1 45.1-101.2 100.9-.1 55.8 45.1 101.1 100.9 101.2 18 0 35.6-4.7 51.2-13.8v14.1h50.2V177.3c0-55.8-45.3-101-101.1-101.1zm0 152c-28.1 0-50.8-22.8-50.8-50.9 0-28.1 22.8-50.8 50.9-50.8 28.1 0 50.8 22.8 50.8 50.9 0 28.1-22.8 50.8-50.9 50.8z" id="path6"/><path class="st1" d="M743.1 76.2c-55.8 0-101.1 45.3-101.1 101.1V362h50.2v-97.4c48.2 28 110 11.7 138.1-36.6 28.1-48.3 11.7-110-36.5-138.1-15.4-8.9-32.9-13.6-50.7-13.7Zm0 152c-28.1 0-50.8-22.8-50.8-50.9 0-28.1 22.8-50.8 50.9-50.8 28.1 0 50.8 22.8 50.8 50.9 0 28-22.8 50.8-50.9 50.8z" id="path8"/><path class="st1" id="rect10" d="M859.2 8h50.2v270.6h-50.2z"/><path class="st1" d="M952.7 63c15.2 0 27.5-12.3 27.5-27.5S967.9 8 952.7 8s-27.5 12.3-27.5 27.5S937.5 63 952.7 63z" id="path12"/><path class="st1" id="rect14" d="M927.7 76.5h50.2v202.1h-50.2z"/><path class="st1" d="m171.4 76.2-48.9 130.7L73.4 76.2H19.8l75.9 202.1-8.7 23.3c-2.2 5.8-7.7 9.6-13.8 9.6H59.6V362H83c21.3 0 40.3-13.2 47.8-33.1l94.6-252.6h-54z" id="path16"/></g></g></svg>
