<svg xmlns="http://www.w3.org/2000/svg" xml:space="preserve" width="653.035" height="481.184"><defs><clipPath clipPathUnits="userSpaceOnUse" id="a"><path d="M0 600h800V0H0Z"/></clipPath></defs><path d="m0 0-2.53 6.418h-12.647L-17.581 0h-8.571l13.693 32.654h7.651L8.739 0Zm-8.759 23.937-4.139-11.206h8.215z" style="fill:#1d1f1e;fill-opacity:1;fill-rule:nonzero;stroke:none" transform="matrix(1.33333 0 0 -1.33333 129.87 384.986)"/><g clip-path="url(#a)" transform="matrix(1.33333 0 0 -1.33333 -206.816 639.993)"><path d="m0 0-7.087 12.961h-2.697V0h-7.693v32.654h12.46c1.568 0 3.094-.167 4.578-.481a12.184 12.184 0 0 0 4.014-1.631 8.485 8.485 0 0 0 2.843-3.052c.711-1.254 1.066-2.822 1.066-4.703 0-2.216-.606-4.077-1.798-5.582C4.495 15.7 2.822 14.613.711 13.986L9.24.021H0Zm-.334 22.64c0 .774-.168 1.401-.481 1.861a3.376 3.376 0 0 1-1.255 1.108 5.48 5.48 0 0 1-1.714.523c-.627.083-1.254.146-1.84.146h-4.201v-7.61h3.763c.647 0 1.316.063 1.985.168.69.104 1.296.292 1.861.585a3.404 3.404 0 0 1 1.359 1.192c.355.522.523 1.191.523 2.027" style="fill:#1d1f1e;fill-opacity:1;fill-rule:nonzero;stroke:none" transform="translate(282.387 191.255)"/><path d="M296.832 223.909h7.923v-32.654h-7.923z" style="fill:#1d1f1e;fill-opacity:1;fill-rule:nonzero;stroke:none"/><path d="M0 0c-2.132-.523-4.474-.774-6.982-.774-2.613 0-5.018.419-7.213 1.255-2.195.836-4.097 2.007-5.665 3.512-1.589 1.505-2.822 3.303-3.721 5.414-.899 2.112-1.338 4.453-1.338 7.024 0 2.614.46 4.976 1.359 7.108.899 2.112 2.153 3.93 3.763 5.415 1.589 1.484 3.47 2.634 5.623 3.428 2.153.795 4.474 1.192 6.962 1.192 2.592 0 4.975-.397 7.191-1.171 2.216-.794 4.014-1.84 5.394-3.157L.397 23.581c-.773.899-1.777 1.631-3.052 2.195-1.254.565-2.697.857-4.286.857-1.379 0-2.654-.251-3.825-.752a9.403 9.403 0 0 1-3.052-2.112c-.858-.899-1.526-1.986-2.007-3.219-.481-1.255-.711-2.613-.711-4.077 0-1.505.209-2.885.648-4.139.439-1.254 1.066-2.341 1.923-3.24.836-.899 1.882-1.61 3.136-2.112 1.254-.502 2.676-.752 4.265-.752.919 0 1.797.062 2.634.209.836.146 1.588.355 2.299.669v5.958H-7.86v6.355H5.603V2.132C3.993 1.192 2.132.523 0 0" style="fill:#1d1f1e;fill-opacity:1;fill-rule:nonzero;stroke:none" transform="translate(334.901 191.214)"/><path d="m0 0-2.53 6.418h-12.626L-17.56 0h-8.571l13.693 32.654h7.651L8.759 0Zm-8.759 23.937-4.139-11.206h8.215z" style="fill:#1d1f1e;fill-opacity:1;fill-rule:nonzero;stroke:none" transform="translate(370 191.255)"/><path d="M0 0v-25.923h-7.881V0H-17.1v6.731H9.219V0Z" style="fill:#1d1f1e;fill-opacity:1;fill-rule:nonzero;stroke:none" transform="translate(392.683 217.178)"/><path d="M0 0c0-2.592-.439-4.934-1.338-7.087-.899-2.132-2.132-3.972-3.721-5.477-1.589-1.526-3.47-2.697-5.644-3.533-2.174-.836-4.558-1.254-7.108-1.254-2.551 0-4.913.418-7.087 1.254-2.174.836-4.035 2.007-5.623 3.533-1.589 1.526-2.823 3.345-3.722 5.477-.898 2.132-1.338 4.495-1.338 7.087 0 2.613.44 4.975 1.338 7.087.899 2.111 2.133 3.888 3.722 5.372 1.588 1.485 3.449 2.614 5.623 3.408 2.174.794 4.536 1.192 7.087 1.192 2.55 0 4.913-.398 7.108-1.192 2.174-.794 4.055-1.944 5.644-3.408 1.589-1.484 2.822-3.261 3.721-5.372C-.439 4.975 0 2.613 0 0m-8.425 0c0 1.422-.23 2.739-.69 3.972a9.39 9.39 0 0 1-1.923 3.157 8.728 8.728 0 0 1-2.947 2.069c-1.15.502-2.425.753-3.805.753-1.38 0-2.655-.251-3.784-.753a9.156 9.156 0 0 1-2.948-2.069c-.836-.878-1.463-1.924-1.923-3.157A11.73 11.73 0 0 1-27.114 0c0-1.484.23-2.843.69-4.077.46-1.254 1.108-2.32 1.923-3.198a8.61 8.61 0 0 1 2.927-2.09c1.129-.502 2.404-.753 3.784-.753s2.634.251 3.784.753a9.21 9.21 0 0 1 2.947 2.09c.837.899 1.485 1.965 1.944 3.198.46 1.255.69 2.614.69 4.077" style="fill:#1d1f1e;fill-opacity:1;fill-rule:nonzero;stroke:none" transform="translate(438.61 207.708)"/><path d="M0 0c0-1.777-.355-3.282-1.066-4.495a8.425 8.425 0 0 0-2.822-2.926A12.278 12.278 0 0 0-7.881-9.01a22.065 22.065 0 0 0-4.578-.481h-13.003v32.654h13.003c1.254 0 2.55-.125 3.867-.397 1.317-.272 2.53-.711 3.596-1.338a7.867 7.867 0 0 0 2.634-2.551c.669-1.066 1.024-2.445 1.024-4.097 0-1.819-.502-3.303-1.484-4.495-.983-1.191-2.279-2.027-3.868-2.55v-.084a8.727 8.727 0 0 0 2.614-.857c.815-.418 1.526-.94 2.111-1.589.606-.648 1.066-1.4 1.422-2.257A7.881 7.881 0 0 0 0 0m-8.947 13.693c0 1.108-.418 1.923-1.276 2.425-.836.502-2.09.753-3.763.753h-3.867v-6.732h4.244c1.484 0 2.613.293 3.428.899.816.606 1.234 1.505 1.234 2.655M-7.881.753c0 1.359-.502 2.299-1.526 2.822-1.025.522-2.363.794-4.056.794h-4.39v-7.463h4.432c.606 0 1.254.063 1.923.167a5.511 5.511 0 0 1 1.798.586c.544.271.982.669 1.317 1.17.314.46.502 1.108.502 1.924" style="fill:#1d1f1e;fill-opacity:1;fill-rule:nonzero;stroke:none" transform="translate(468.36 200.746)"/><path d="m0 0-2.53 6.418h-12.626L-17.56 0h-8.571l13.693 32.654h7.651L8.759 0Zm-8.759 23.937-4.139-11.206h8.215z" style="fill:#1d1f1e;fill-opacity:1;fill-rule:nonzero;stroke:none" transform="translate(495.704 191.255)"/><path d="m0 0-13.149 21.344h-.147L-13.108 0h-7.651v32.654h8.989L1.317 11.352h.146l-.188 21.302h7.652V0Z" style="fill:#1d1f1e;fill-opacity:1;fill-rule:nonzero;stroke:none" transform="translate(527.918 191.255)"/><path d="m0 0-12.125 15.031h-.084V0h-7.693v32.654h7.693V19.379h.146L-.397 32.654H9.47L-4.599 17.623 10.285 0Z" style="fill:#1d1f1e;fill-opacity:1;fill-rule:nonzero;stroke:none" transform="translate(563.353 191.255)"/><path d="M0 0c-4.861 3.992-16.086 9.411-36.546.926-9.646-4.007-18.365-8.288-26.248-12.72.061 5.221-.334 10.033-1.2 14.405-1.853 9.29-7.792 16.834-16.298 20.659-8.886 4.008-19.049 3.355-27.858-1.791-43.58-25.441-73.716-102.552-84.728-134.733a3.411 3.411 0 0 1 1.336-3.946l13.534-9.169c7.701 23.634 37.549 107.896 79.062 132.122 3.646 2.125 7.717 2.459 11.165.911 3.114-1.397 5.195-4.099 5.894-7.59 1.002-5.085 1.336-12.189 0-21.934-29.423-21.221-42.364-45.979-45.25-60.414-2.719-13.616 2.551-26.14 12.531-29.783 3.767-1.381 16.754-4.781 28.04 15.833 2.841 5.206 14.749 35.717 18.486 48.65-12.638-2.55-21.889-14.193-30.288-29.221a562.523 562.523 0 0 0-4.663-10.792c-2.051-4.372-3.601-6.77-5.287-6.588-1.595.197-1.412 4.053-.577 8.242 1.55 7.711 7.398 20.143 19.717 33.167 10.693 13.874 46.768 33.987 59.619 37.843 15.357 4.614 19.321 2.596 18.729-2.915-.942-8.94-9.433-22.238-35.635-39.694-4.177-2.52-7.079-4.523-7.276-4.645l9.949-15.255a216.52 216.52 0 0 1 7.443 4.766c5.256 3.127 10.481 5.738 14.248 7.15-1.823-5.116-6.623-15.119-19.184-33.744a3.435 3.435 0 0 1 .911-4.767l12.212-8.348C-3.418-77.233 2.354-60.384-6.851-51.216c-.425.426-.865.805-1.321 1.154C.137-40.757 5.271-31.361 7.154-21.965 8.886-13.16 6.289-5.161 0 0" style="fill:#1d1f1e;fill-opacity:1;fill-rule:nonzero;stroke:none" transform="translate(501.723 382.876)"/></g></svg>