<svg xmlns="http://www.w3.org/2000/svg" width="2600" height="916.52"><path d="M300 459.13v-.87c0-87 65.57-158.26 159.57-158.26 57.71 0 92.25 19.24 120.66 47.22l-42.84 49.4c-23.61-21.42-47.66-34.54-78.26-34.54-51.59 0-88.75 42.84-88.75 95.31v.87c0 52.46 36.29 96.18 88.75 96.18 35 0 56.4-14 80.44-35.85l42.85 43.28c-31.48 33.66-66.45 54.65-125.48 54.65-90.05 0-156.94-69.51-156.94-157.39Zm340.54-153.87h67.33v121.1H832v-121.1h67.33v306H832V488.43H707.87v122.83h-67.33ZM963.6 459.13v-.87c0-87 68.64-158.26 163.07-158.26 94.43 0 162.19 70.39 162.19 157.39v.87c0 87-68.64 158.26-163.07 158.26-94.43 0-162.19-70.39-162.19-157.39zm254.87 0v-.87c0-52.46-38.47-96.18-92.68-96.18-54.21 0-91.79 42.84-91.79 95.31v.87c0 52.46 38.47 96.18 92.68 96.18 54.21 0 91.79-42.84 91.79-95.31zm134.63-153.87h72.58l80.44 129.4 80.44-129.4h72.57v306h-66.89V411.48l-86.12 130.72h-1.75l-85.25-129.41v198.47h-66zm383.82 0h125c73 0 117.16 43.28 117.16 105.8v.87c0 70.82-55.08 107.54-123.72 107.54h-51.15v91.79h-67.33zm120.67 154.32c33.66 0 53.33-20.11 53.33-46.34v-.87c0-30.17-21-46.34-54.65-46.34h-52v93.55zm257.48 31.03-117.6-185.35h78.69l73 122.84 74.33-122.84H2300l-117.6 184v122h-67.33z" style="fill:#111"/></svg>