<svg xmlns="http://www.w3.org/2000/svg" xml:space="preserve" width="612.369" height="477.693" style="background-color:#fff"><defs><clipPath clipPathUnits="userSpaceOnUse" id="a"><path d="M0 178.27h234.278V0H0Z"/></clipPath></defs><g clip-path="url(#a)" transform="matrix(1.33333 0 0 -1.33333 150 357.693)"><path d="M0 0c-18.672-21.521-37.108-73.188-37.108-90.639 0-1.715.8-1.748 1.752-.489 2.97 3.931 12.165 12.652 17.579 16.376 9.476 6.519 17.421 4.661 19.172-2.707 5.992-25.227 11.222-22.725 30.631-11.444 9.185 5.338 12.684-2.177 3.483-8.522-42.591-29.369-49.099 8.884-49.375 9.865-4.165-2.282-18.364-18.05-23.311-29.801-2.406-5.716-18.387-8.316-19.164 6.754C-57.882-80.718-29.808-9.229-8.646 10.685-4.012 15.045 5.791 6.675 0 0" style="fill:#231916;fill-opacity:1;fill-rule:nonzero;stroke:none" transform="translate(56.402 166.38)"/><path d="M0 0c-63.194-62.218-53.489-28.343-46.128-14.994.266.481.528.938.784 1.361 2.804 4.631-5.635 14.91-12.339 9.072-6.664-5.803-13.953-14.078-18.961-17.75-3.786-2.776-4.171-10.699 6.764-7.372.626.191 3.859 1.757 4.772 2.246-7.503-18.17 14.865-33.904 46.754-8.934-13.595-27.442-10.626-48.274-8.764-57.42 3.28-16.11 22.813-8.635 17.295 1.42-.569 1.034-2.06 3.193-2.729 6.383-2.899 13.818-2.255 45.632 25.166 74.105C17.45-6.862 7.17 7.059 0 0" style="fill:#231916;fill-opacity:1;fill-rule:nonzero;stroke:none" transform="translate(220.415 103.165)"/><path d="M0 0c17.44 8.358 24.593 20.368 25.48 22.058.888 1.689.252 2.035-1.413.909-1.666-1.125-12.959-8.458-17.599-26.375-.618-2.389-.272-5.429.789-6.943 1.016-1.578 15.904-12.896 61.076 27.253 12.815 11.391 11.593-4.087 7.417-8.523C23.499-47.133-1.019-23.018-4.287-17.85c-1.822 2.643-2.898 5.738-3.27 8.679-.398 2.962-.163 5.766.326 8.37C-5.329 8.776-.027 17.324 5.96 24.301c3.044 3.553 6.201 6.636 10.112 9.647 2.132 1.531 4.491 3.006 7.687 3.941 1.605.443 3.433.767 5.589.572 2.121-.179 4.649-1.022 6.632-2.743 2.014-1.689 3.21-3.989 3.746-6.002.563-2.057.567-3.891.416-5.561-.356-3.324-1.434-5.989-2.675-8.371-2.55-4.731-5.941-8.293-9.49-11.393C20.813-1.753 9.706-6.467 4.497-8.886-2.099-11.949-4.91-2.354 0 0" style="fill:#231916;fill-opacity:1;fill-rule:nonzero;stroke:none" transform="translate(90.976 78.812)"/></g></svg>
