<svg xmlns="http://www.w3.org/2000/svg" xml:space="preserve" width="858.524" height="781.333"><defs><clipPath clipPathUnits="userSpaceOnUse" id="a"><path d="M0 586h643.893V0H0Z"/></clipPath></defs><g clip-path="url(#a)" transform="matrix(1.33333 0 0 -1.33333 0 781.333)"><path d="M0 0c.044.24.084.483.133.728a25.662 25.662 0 0 0 7.942 13.715c.152.138.298.269.45.404.163.138.327.27.493.405.152.131.312.256.471.381 5.802 4.518 13.499 6.54 21.251 4.875C41.23 18.255 48.838 9.922 50.682 0Zm52.296 29.767c-.247.183-.498.361-.746.537-.261.184-.516.375-.784.554-.235.161-.483.313-.723.474a47.848 47.848 0 0 1-21.354 7.569C2.328 41.609-21.245 22.431-23.956-3.93-25.975-23.62-15.788-41.744.472-50.791a52.614 52.614 0 0 1 2.706-1.387 65.077 65.077 0 0 1 2.016-.907c21.132-9.128 44.988-4.64 61.342 9.907l-4.848 4.908-7.646 7.753a38.5 38.5 0 0 0-15.879-8.09 39.066 39.066 0 0 0-8.496-1.082c-.167-.005-.337-.005-.497-.005-.274 0-.544-.005-.813 0-.715.005-1.431.04-2.155.1a31.321 31.321 0 0 0-7.327 1.502C9.117-34.826 2.066-27.169-.832-18.059H70.879c.277 1.413.499 2.851.655 4.314 1.792 17.497-6.057 33.754-19.238 43.512" style="fill:#1b3a4b;fill-opacity:1;fill-rule:nonzero;stroke:none" transform="translate(276.574 167.724)"/><path d="M0 0c.044.24.082.483.139.728a25.631 25.631 0 0 0 7.934 13.715c.151.138.301.269.455.404.16.138.329.27.487.405.159.131.314.256.479.381 5.802 4.518 13.489 6.54 21.251 4.875C41.235 18.255 48.84 9.922 50.679 0Zm52.296 29.767c-.243.183-.493.361-.748.537-.255.184-.51.375-.776.554-.239.161-.487.313-.723.474a47.896 47.896 0 0 1-21.353 7.569C2.324 41.609-21.245 22.431-23.954-3.93-25.98-23.62-15.792-41.744.474-50.791c.886-.493 1.79-.946 2.71-1.387a58.97 58.97 0 0 1 2.01-.907c21.135-9.128 44.992-4.64 61.347 9.907l-4.847 4.908-7.654 7.753a38.426 38.426 0 0 0-15.879-8.09 38.967 38.967 0 0 0-8.491-1.082c-.166-.005-.332-.005-.503-.005-.269 0-.539-.005-.805 0a31.203 31.203 0 0 0-9.483 1.602C9.114-34.826 2.063-27.169-.83-18.059h71.716a49.55 49.55 0 0 1 .645 4.314c1.802 17.497-6.049 33.754-19.235 43.512" style="fill:#1b3a4b;fill-opacity:1;fill-rule:nonzero;stroke:none" transform="translate(381.177 167.724)"/><path d="M0 0c.046.24.084.483.137.728A25.674 25.674 0 0 0 8.07 14.443c.156.138.306.269.455.404.163.138.325.27.487.405.16.131.319.256.477.381 5.806 4.518 13.499 6.54 21.255 4.875C41.229 18.255 48.842 9.922 50.681 0Zm52.29 29.767c-.24.183-.491.361-.738.537-.262.184-.515.375-.78.554-.242.161-.483.313-.728.474a47.884 47.884 0 0 1-21.351 7.569C2.323 41.609-21.248 22.431-23.956-3.93c-2.019-19.69 8.161-37.814 24.43-46.861a52.239 52.239 0 0 1 4.724-2.294c21.13-9.128 44.984-4.64 61.341 9.907l-4.848 4.908-7.648 7.753a38.464 38.464 0 0 0-15.881-8.09 39.057 39.057 0 0 0-8.495-1.082c-.166-.005-.334-.005-.498-.005-.272 0-.544-.005-.811 0a31.182 31.182 0 0 0-9.482 1.602C9.119-34.826 2.067-27.169-.829-18.059H70.879c.277 1.413.499 2.851.651 4.314 1.798 17.497-6.051 33.754-19.24 43.512" style="fill:#1b3a4b;fill-opacity:1;fill-rule:nonzero;stroke:none" transform="translate(172.285 167.724)"/><path d="M0 0c-14.035 0-25.414 11.669-25.414 26.064S-14.035 52.129 0 52.129c14.027 0 25.398-11.67 25.398-26.065C25.398 11.669 14.027 0 0 0m28.775 89.182V60.091c-8.049 7.984-18.923 12.89-30.898 12.89-24.796 0-44.902-21.006-44.902-46.917s20.106-46.913 44.902-46.913c11.975 0 22.849 4.903 30.898 12.889v-12.889h20.876V97.887Z" style="fill:#1b3a4b;fill-opacity:1;fill-rule:nonzero;stroke:none" transform="translate(507.532 130.757)"/><path d="M0 0c5.633-.304 8.75-3.114 9.609-6.773 1.168-5.013-2.716-9.732-6.296-11.345-9.721-4.358-30.377-.832-41.635 8.464l-10.269-15.239c13.669-11.063 26.802-14.144 40.113-14.144 21.567 0 38.113 9.592 38.113 30.29 0 32.719-38.569 27.593-47.033 30.237-3.588 1.125-7.524 2.994-7.758 9.291-.201 5.509 3.992 9.657 8.733 10.361 11.7 1.73 22.163-2.528 30.85-8.879l11.712 13.483C13.366 54.893 2.856 57.924-9.784 57.924c-20.086 0-36.445-11.026-36.445-29.98C-43.643-1.103-9.998.542 0 0" style="fill:#1b3a4b;fill-opacity:1;fill-rule:nonzero;stroke:none" transform="translate(109.621 148.945)"/><path d="M0 0c-42.793 29.326-76.058 71.543-94.169 121.068-7.699 21.044-12.652 43.403-14.453 66.655-8.217-17.557-12.83-37.136-12.83-57.803 0-67.86 49.514-124.138 114.386-134.733a137.284 137.284 0 0 1 17.058-1.69A259.529 259.529 0 0 0 0 0" style="fill:#80cc28;fill-opacity:1;fill-rule:nonzero;stroke:none" transform="translate(283.138 261.7)"/><path d="M0 0c0-48.558 25.366-91.161 63.55-115.376C45.854-80.981 35.868-41.971 35.868-.628c0 42.115 10.378 81.793 28.69 116.654C25.814 91.929 0 48.989 0 0" style="fill:#80cc28;fill-opacity:1;fill-rule:nonzero;stroke:none" transform="translate(232.471 391.621)"/><path d="M0 0a250.08 250.08 0 0 0-14.04-66.026c-18.053-50.219-51.643-93.021-94.981-122.609a226.631 226.631 0 0 0-3.539-2.362 236.08 236.08 0 0 0-6.124-3.911 138.01 138.01 0 0 1 17.179 1.653c64.998 10.484 114.644 66.824 114.644 134.778C13.139-37.543 8.418-17.726 0 0" style="fill:#80cc28;fill-opacity:1;fill-rule:nonzero;stroke:none" transform="translate(448.62 450.098)"/><path d="M0 0c0 48.875-25.699 91.733-64.303 115.859C-46.047 81.04-35.691 41.414-35.691-.628c0-41.278-9.964-80.226-27.602-114.577C-25.251-90.966 0-48.446 0 0" style="fill:#80cc28;fill-opacity:1;fill-rule:nonzero;stroke:none" transform="translate(390.453 391.621)"/><path d="M0 0h-5.942v-4.128h-3.566V0h-8.654c-2.281 0-3.269-.617-3.269-2.434 0-.814.123-1.432.244-1.862l-3.42-.072c-.273.695-.564 1.934-.564 3.44 0 1.74.58 2.671 1.549 3.561 1.079 1.002 2.78 1.469 5.257 1.469h8.857v3.252h3.566V4.102h4.814z" style="fill:#a7a5a6;fill-opacity:1;fill-rule:nonzero;stroke:none" transform="translate(597.661 201.5)"/><path d="M0 0h-11.606c-1.32 0-2.411-.133-3.277-.405-.864-.272-1.549-.65-2.047-1.144a4.07 4.07 0 0 1-1.066-1.701 6.933 6.933 0 0 1-.312-2.09c0-1.672.552-3.03 1.647-4.062 1.096-1.032 2.819-1.547 5.164-1.547H0v-4.022h-21.441v3.672h2.324v.075c-.931.539-1.64 1.389-2.126 2.538-.492 1.143-.739 2.405-.739 3.77 0 1.238.191 2.377.561 3.41a8.571 8.571 0 0 0 1.565 2.705c.777.904 1.807 1.599 3.097 2.093 1.293.492 3.004.734 5.153.734H0Z" style="fill:#a7a5a6;fill-opacity:1;fill-rule:nonzero;stroke:none" transform="translate(594.313 189.023)"/><path d="M0 0c1.135 0 2.167.193 3.11.579a7.282 7.282 0 0 1 2.422 1.584A7.306 7.306 0 0 1 7.1 4.525c.372.901.56 1.87.56 2.902 0 1.233-.24 2.315-.713 3.232-.482.915-1.092 1.683-1.838 2.3a7.524 7.524 0 0 1-2.481 1.374c-.9.298-1.775.444-2.628.444a7.674 7.674 0 0 1-5.224-2.048 7.387 7.387 0 0 1-1.687-2.325 6.791 6.791 0 0 1-.639-2.937 7.19 7.19 0 0 1 .603-2.942 7.57 7.57 0 0 1 1.628-2.362A7.517 7.517 0 0 1-2.925.579 7.458 7.458 0 0 1 0 0m-10.684 0h3.061v.076a8.031 8.031 0 0 0-2.69 3.248c-.603 1.319-.912 2.761-.912 4.336 0 1.778.312 3.362.951 4.739.631 1.382 1.473 2.547 2.514 3.503a10.706 10.706 0 0 0 3.573 2.166c1.349.491 2.726.733 4.144.733 1.316 0 2.648-.223 3.99-.672a11.404 11.404 0 0 0 3.657-2.056c1.096-.91 1.99-2.067 2.685-3.462.696-1.393 1.045-3.042 1.045-4.951 0-1.495-.287-2.892-.871-4.181C9.887 2.19 9.105 1.158 8.123.387V.303h7.495l1.584-4.018h-27.886z" style="fill:#a7a5a6;fill-opacity:1;fill-rule:nonzero;stroke:none" transform="translate(583.556 150.721)"/><path d="M572.872 141.418h20.443v-4.026h-20.443zm23.512 0h4.374v-4.026h-4.374z" style="fill:#a7a5a6;fill-opacity:1;fill-rule:nonzero;stroke:none"/><path d="M0 0c.957 0 1.886.175 2.786.541a7.72 7.72 0 0 1 2.419 1.526 7.262 7.262 0 0 1 1.699 2.378c.428.931.643 1.965.643 3.096 0 1.137-.215 2.171-.643 3.099a7.353 7.353 0 0 1-1.699 2.382 7.783 7.783 0 0 1-2.434 1.526 7.64 7.64 0 0 1-5.634 0 7.759 7.759 0 0 1-2.438-1.552 7.444 7.444 0 0 1-1.723-2.377c-.425-.915-.639-1.941-.639-3.078a7.28 7.28 0 0 1 .616-2.998 7.796 7.796 0 0 1 1.688-2.398A7.747 7.747 0 0 1-2.899.557 7.696 7.696 0 0 1 0 0m0-4.028c-1.312 0-2.645.266-3.984.795A11.812 11.812 0 0 0-7.62-.972c-1.087.985-1.974 2.194-2.674 3.639-.692 1.443-1.044 3.067-1.044 4.874 0 1.805.341 3.427 1.024 4.859.688 1.43 1.573 2.644 2.651 3.635a11.608 11.608 0 0 0 3.658 2.283c1.356.533 2.713.797 4.083.797 1.475 0 2.878-.293 4.218-.87a11.188 11.188 0 0 0 3.54-2.42 12.036 12.036 0 0 0 2.456-3.66c.621-1.407.929-2.944.929-4.624 0-1.622-.297-3.135-.888-4.541-.6-1.409-1.402-2.634-2.421-3.68a11.197 11.197 0 0 0-3.573-2.46A10.819 10.819 0 0 0 0-4.028" style="fill:#a7a5a6;fill-opacity:1;fill-rule:nonzero;stroke:none" transform="translate(583.669 113.955)"/><path d="m0 0 1.499-2.858C-1.012-4.133-2.227-6.093-2.227-8.75c0-2.599.837-4.364 2.778-4.364 1.846 0 2.712 1.332 3.752 4.855 1.212 4.126 2.34 7.45 6.412 7.45 3.639 0 6.036-2.971 6.036-7.305 0-4.22-2.079-6.699-4.597-8.002l-1.814 2.627c2.138 1.273 3.12 3.093 3.12 5.403 0 2.367-.868 3.724-2.427 3.724-1.992 0-2.66-1.531-3.697-5.025-1.187-4.039-2.518-7.277-6.526-7.277-3.496 0-6.238 2.974-6.238 8.058C-5.428-4.362-3.236-1.356 0 0" style="fill:#a7a5a6;fill-opacity:1;fill-rule:nonzero;stroke:none" transform="translate(577.918 228.626)"/></g></svg>