<svg xmlns="http://www.w3.org/2000/svg" xml:space="preserve" width="1375.247" height="404.71"><path d="M386.19 135.76c0 18.645-15.115 33.761-33.76 33.761-18.646 0-33.761-15.116-33.761-33.76 0-18.645 15.115-33.761 33.76-33.761 18.646 0 33.76 15.116 33.76 33.76" style="fill:#52c6da;fill-opacity:1;fill-rule:nonzero;stroke:none;stroke-width:.13333"/><path d="M215.712 232.617c-2.02-1.315-7.833-9.05-23.746-47.158-.997-2.389-1.929-4.446-2.804-6.22l-3.257-7.865-27.968-67.522H102l27.968 67.522 27.969 67.523 25.838 62.375c.788 1.905 3.482 1.907 4.277.007l28.104-67.285c.203-.484-.003-1.092-.444-1.377m104.795-.003c-2.021-1.315-7.834-9.05-23.746-47.156a109.758 109.758 0 0 0-2.805-6.221l-3.256-7.863-27.969-67.522h-55.936l27.969 67.522 27.967 67.521 25.837 62.375c.79 1.903 3.484 1.908 4.279.007l28.104-67.284c.203-.484-.004-1.09-.444-1.379" style="fill:#373334;fill-opacity:1;fill-rule:evenodd;stroke:none;stroke-width:.13333"/><path d="m1230.735 267.726 42.512-102.63H1253.1l-32.438 78.311-32.44-78.311h-20.144l42.51 102.63-14.492 34.984h20.147zM885.55 165.096h-18.046v-35.131H849.01v35.13h-18.048v18.492h18.048v84.14h18.493v-84.14h18.046zm272.228-35.131h-18.492v137.761h18.492zm-535.728 0h-20.146l-40.708 98.276-33.84-98.276h-9.73l-33.84 98.276-40.708-98.276h-20.144l57.06 137.76h10.343l32.154-93.381 32.154 93.381h10.342zm287.69 78.682h70.78a35.978 35.978 0 0 0-9.761-17.865c-6.846-6.845-15.947-10.616-25.63-10.616-9.68 0-18.783 3.77-25.628 10.616a35.988 35.988 0 0 0-9.76 17.865zm65.95 27.272h20.593c-7.86 20.596-27.796 35.229-51.153 35.229-30.23 0-54.737-24.508-54.737-54.738 0-30.228 24.507-54.735 54.737-54.735s54.737 24.507 54.737 54.735c0 3.347-.313 6.619-.89 9.799h-88.728a36.016 36.016 0 0 0 9.252 15.83c6.845 6.847 15.948 10.618 25.629 10.618 9.682 0 18.783-3.771 25.629-10.618a36.481 36.481 0 0 0 4.93-6.12zM696.455 216.41c0-9.68-3.77-18.783-10.615-25.628-6.847-6.845-15.948-10.616-25.63-10.616-9.681 0-18.782 3.77-25.629 10.616-6.845 6.845-10.616 15.949-10.616 25.628 0 9.682 3.77 18.784 10.616 25.63 6.847 6.846 15.948 10.616 25.629 10.616 9.682 0 18.783-3.77 25.63-10.617 6.845-6.845 10.615-15.947 10.615-25.629zm18.492-51.314v102.63h-18.492v-12.45c-8.743 9.808-21.214 15.872-36.245 15.872-30.23 0-54.736-24.508-54.736-54.738 0-30.228 24.506-54.735 54.736-54.735 15.031 0 27.502 6.062 36.245 15.871v-12.45zm386.49 51.314c0-9.68-3.77-18.783-10.617-25.628-6.845-6.845-15.947-10.616-25.627-10.616-9.681 0-18.784 3.77-25.63 10.616-6.845 6.845-10.616 15.949-10.616 25.628 0 9.682 3.77 18.784 10.616 25.63s15.949 10.616 25.63 10.616c9.68 0 18.782-3.77 25.627-10.617 6.847-6.845 10.617-15.947 10.617-25.629zm18.492-86.445v137.761h-18.492v-12.45c-8.742 9.808-21.213 15.872-36.244 15.872-30.23 0-54.737-24.508-54.737-54.738 0-30.228 24.507-54.735 54.737-54.735 15.032 0 27.502 6.062 36.244 15.871v-47.581zM823.687 206.9v60.826h-18.493V206.9c0-18.438-11.73-26.734-26.2-26.734-13.706 0-26.199 7.905-26.199 26.734v60.826h-18.491v-102.63h18.491v8.292c6.864-7.274 16.424-11.713 28.047-11.713h.001c24.682 0 42.843 18.734 42.843 45.225" style="fill:#373334;fill-opacity:1;fill-rule:nonzero;stroke:none;stroke-width:.13333"/></svg>